<svg viewBox="0 0 682 682" xmlns="http://www.w3.org/2000/svg" xmlns:xlink="http://www.w3.org/1999/xlink"><style>:root&gt;svg{display:none}:root&gt;svg:target{display:block}</style><svg viewBox="0 0 447.243 447.243" id="arrow" xmlns="http://www.w3.org/2000/svg"><path d="M420.361 192.229a31.967 31.967 0 00-5.535-.41H99.305l6.88-3.2a63.998 63.998 0 0018.08-12.8l88.48-88.48c11.653-11.124 13.611-29.019 4.64-42.4-10.441-14.259-30.464-17.355-44.724-6.914a32.018 32.018 0 00-3.276 2.754l-160 160c-12.504 12.49-12.515 32.751-.025 45.255l.025.025 160 160c12.514 12.479 32.775 12.451 45.255-.063a32.084 32.084 0 002.745-3.137c8.971-13.381 7.013-31.276-4.64-42.4l-88.32-88.64a64.002 64.002 0 00-16-11.68l-9.6-4.32h314.24c16.347.607 30.689-10.812 33.76-26.88 2.829-17.445-9.019-33.88-26.464-36.71z"/></svg><svg viewBox="0 0 482.9 482.9" id="avatar" xmlns="http://www.w3.org/2000/svg"><path d="M239.7 260.2h3.2c29.3-.5 53-10.8 70.5-30.5 38.5-43.4 32.1-117.8 31.4-124.9-2.5-53.3-27.7-78.8-48.5-90.7C280.8 5.2 262.7.4 242.5 0h-1.7c-11.1 0-32.9 1.8-53.8 13.7-21 11.9-46.6 37.4-49.1 91.1-.7 7.1-7.1 81.5 31.4 124.9 17.4 19.7 41.1 30 70.4 30.5zm-75.1-152.9c0-.3.1-.6.1-.8 3.3-71.7 54.2-79.4 76-79.4h1.2c27 .6 72.9 11.6 76 79.4 0 .3 0 .6.1.8.1.7 7.1 68.7-24.7 104.5-12.6 14.2-29.4 21.2-51.5 21.4h-1c-22-.2-38.9-7.2-51.4-21.4-31.7-35.6-24.9-103.9-24.8-104.5z"/><path d="M446.8 383.6v-.3c0-.8-.1-1.6-.1-2.5-.6-19.8-1.9-66.1-45.3-80.9-.3-.1-.7-.2-1-.3-45.1-11.5-82.6-37.5-83-37.8-6.1-4.3-14.5-2.8-18.8 3.3-4.3 6.1-2.8 14.5 3.3 18.8 1.7 1.2 41.5 28.9 91.3 41.7 23.3 8.3 25.9 33.2 26.6 56 0 .9 0 1.7.1 2.5.1 9-.5 22.9-2.1 30.9-16.2 9.2-79.7 41-176.3 41-96.2 0-160.1-31.9-176.4-41.1-1.6-8-2.3-21.9-2.1-30.9 0-.8.1-1.6.1-2.5.7-22.8 3.3-47.7 26.6-56 49.8-12.8 89.6-40.6 91.3-41.7 6.1-4.3 7.6-12.7 3.3-18.8-4.3-6.1-12.7-7.6-18.8-3.3-.4.3-37.7 26.3-83 37.8-.4.1-.7.2-1 .3-43.4 14.9-44.7 61.2-45.3 80.9 0 .9 0 1.7-.1 2.5v.3c-.1 5.2-.2 31.9 5.1 45.3 1 2.6 2.8 4.8 5.2 6.3 3 2 74.9 47.8 195.2 47.8s192.2-45.9 195.2-47.8c2.3-1.5 4.2-3.7 5.2-6.3 5-13.3 4.9-40 4.8-45.2z"/></svg><svg viewBox="0 0 512 512" id="copyright" xmlns="http://www.w3.org/2000/svg"><path d="M256 512c-68.379 0-132.668-26.629-181.02-74.98C26.63 388.668 0 324.379 0 256S26.629 123.332 74.98 74.98C123.332 26.63 187.621 0 256 0s132.668 26.629 181.02 74.98C485.37 123.332 512 187.621 512 256s-26.629 132.668-74.98 181.02C388.668 485.37 324.379 512 256 512zm0-472C136.898 40 40 136.898 40 256s96.898 216 216 216 216-96.898 216-216S375.102 40 256 40zm105.36 321.36l-28.286-28.286c-42.5 42.5-111.648 42.5-154.148 0s-42.5-111.648 0-154.148 111.648-42.5 154.148 0l28.285-28.285c-58.097-58.094-152.625-58.094-210.718 0-58.094 58.097-58.094 152.625 0 210.718 29.047 29.047 67.203 43.57 105.359 43.57 38.152 0 76.313-14.523 105.36-43.57zm0 0"/></svg><svg viewBox="0 0 291.319 291.319" id="facebook" xmlns="http://www.w3.org/2000/svg"><path d="M145.659 0c80.45 0 145.66 65.219 145.66 145.66 0 80.45-65.21 145.659-145.66 145.659S0 226.109 0 145.66C0 65.219 65.21 0 145.659 0z" fill="#3b5998"/><path d="M163.394 100.277h18.772v-27.73h-22.067v.1c-26.738.947-32.218 15.977-32.701 31.763h-.055v13.847h-18.207v27.156h18.207v72.793h27.439v-72.793h22.477l4.342-27.156h-26.81v-8.366c0-5.335 3.55-9.614 8.603-9.614z" fill="#fff"/></svg><svg viewBox="0 0 24 24" id="facebook-plain" xmlns="http://www.w3.org/2000/svg"><path d="M15.997 3.985h2.191V.169C17.81.117 16.51 0 14.996 0c-3.159 0-5.323 1.987-5.323 5.639V9H6.187v4.266h3.486V24h4.274V13.267h3.345l.531-4.266h-3.877V6.062c.001-1.233.333-2.077 2.051-2.077z"/></svg><svg viewBox="0 0 24 24" id="linkedin-plain" xmlns="http://www.w3.org/2000/svg"><path d="M23.994 24v-.001H24v-8.802c0-4.306-.927-7.623-5.961-7.623-2.42 0-4.044 1.328-4.707 2.587h-.07V7.976H8.489v16.023h4.97v-7.934c0-2.089.396-4.109 2.983-4.109 2.549 0 2.587 2.384 2.587 4.243V24zM.396 7.977h4.976V24H.396zM2.882 0C1.291 0 0 1.291 0 2.882s1.291 2.909 2.882 2.909 2.882-1.318 2.882-2.909A2.884 2.884 0 002.882 0z"/></svg><svg viewBox="0 0 511.072 511.072" id="speech-bubble" xmlns="http://www.w3.org/2000/svg"><path d="M74.39 480.536H38.177l25.607-25.607c13.807-13.807 22.429-31.765 24.747-51.246-36.029-23.644-62.375-54.751-76.478-90.425C-2.04 277.611-3.811 238.37 6.932 199.776c12.89-46.309 43.123-88.518 85.128-118.853 45.646-32.963 102.47-50.387 164.33-50.387 77.927 0 143.611 22.389 189.948 64.745 41.744 38.159 64.734 89.63 64.734 144.933 0 26.868-5.471 53.011-16.26 77.703-11.165 25.551-27.514 48.302-48.593 67.619-46.399 42.523-112.042 65-189.83 65-28.877 0-59.01-3.855-85.913-10.929-25.465 26.123-59.972 40.929-96.086 40.929zm182-420c-124.039 0-200.15 73.973-220.557 147.285-19.284 69.28 9.143 134.743 76.043 175.115l7.475 4.511-.23 8.727c-.456 17.274-4.574 33.912-11.945 48.952 17.949-6.073 34.236-17.083 46.99-32.151l6.342-7.493 9.405 2.813c26.393 7.894 57.104 12.241 86.477 12.241 154.372 0 224.682-93.473 224.682-180.322 0-46.776-19.524-90.384-54.976-122.79-40.713-37.216-99.397-56.888-169.706-56.888z"/></svg><svg viewBox="0 0 291.319 291.319" id="twitter" xmlns="http://www.w3.org/2000/svg"><path d="M145.659 0c80.45 0 145.66 65.219 145.66 145.66 0 80.45-65.21 145.659-145.66 145.659S0 226.109 0 145.66C0 65.219 65.21 0 145.659 0z" fill="#26a6d1"/><path d="M236.724 98.129c-6.363 2.749-13.21 4.597-20.392 5.435 7.338-4.27 12.964-11.016 15.613-19.072a71.965 71.965 0 01-22.55 8.366c-6.473-6.691-15.695-10.87-25.909-10.87-19.591 0-35.486 15.413-35.486 34.439 0 2.704.31 5.335.919 7.857-29.496-1.438-55.66-15.158-73.157-35.996a33.46 33.46 0 00-4.807 17.315c0 11.944 6.263 22.504 15.786 28.668-5.826-.182-11.289-1.721-16.086-4.315v.437c0 16.696 12.235 30.616 28.476 33.784a36.707 36.707 0 01-9.35 1.211c-2.285 0-4.506-.209-6.673-.619 4.515 13.692 17.625 23.651 33.165 23.925-12.153 9.249-27.457 14.748-44.089 14.748-2.868 0-5.69-.164-8.476-.482 15.722 9.777 34.367 15.485 54.422 15.485 65.292 0 100.997-52.51 100.997-98.029l-.1-4.461a70.838 70.838 0 0017.697-17.826z" fill="#fff"/></svg><svg viewBox="0 0 512 512" id="twitter-plain" xmlns="http://www.w3.org/2000/svg"><path d="M512 97.248c-19.04 8.352-39.328 13.888-60.48 16.576 21.76-12.992 38.368-33.408 46.176-58.016-20.288 12.096-42.688 20.64-66.56 25.408C411.872 60.704 384.416 48 354.464 48c-58.112 0-104.896 47.168-104.896 104.992 0 8.32.704 16.32 2.432 23.936-87.264-4.256-164.48-46.08-216.352-109.792-9.056 15.712-14.368 33.696-14.368 53.056 0 36.352 18.72 68.576 46.624 87.232-16.864-.32-33.408-5.216-47.424-12.928v1.152c0 51.008 36.384 93.376 84.096 103.136-8.544 2.336-17.856 3.456-27.52 3.456-6.72 0-13.504-.384-19.872-1.792 13.6 41.568 52.192 72.128 98.08 73.12-35.712 27.936-81.056 44.768-130.144 44.768-8.608 0-16.864-.384-25.12-1.44C46.496 446.88 101.6 464 161.024 464c193.152 0 298.752-160 298.752-298.688 0-4.64-.16-9.12-.384-13.568 20.832-14.784 38.336-33.248 52.608-54.496z"/></svg><svg viewBox="0 0 291.319 291.319" id="youtube" xmlns="http://www.w3.org/2000/svg"><path d="M145.659 0c80.45 0 145.66 65.219 145.66 145.66s-65.21 145.659-145.66 145.659S0 226.1 0 145.66 65.21 0 145.659 0z" fill="#c4302b"/><path d="M142.145 118.357c4.606 0 8.212-1.466 10.852-3.55 2.622-2.094 3.933-4.943 3.933-8.603V84.118c0-3.25-1.338-5.936-4.006-8.002-2.686-2.067-6.118-3.095-10.324-3.095-4.597 0-8.275.974-10.997 2.931-2.731 1.966-4.097 4.588-4.097 7.911v22.158c0 3.641 1.329 6.518 3.987 8.676s6.219 3.66 10.652 3.66zm-4.815-33.419c0-.838.437-1.511 1.302-2.048.874-.519 2.003-.774 3.387-.774 1.511 0 2.731.255 3.651.774.929.537 1.384 1.211 1.384 2.048v20.993c0 1.038-.455 1.857-1.366 2.449-.91.583-2.13.883-3.669.883-1.502 0-2.667-.282-3.478-.874-.801-.574-1.211-1.393-1.211-2.458V84.938zm35.295 33.392c1.62 0 3.268-.929 4.98-1.857 1.73-.947 3.377-2.331 4.962-4.133v4.907h8.603v-44.29h-8.603v33.62a12.2 12.2 0 01-2.649 2.376c-.974.619-1.775.938-2.403.938-.81 0-1.402-.228-1.748-.71-.364-.464-.564-1.22-.564-2.258V72.966h-8.585v37.007c0 2.64.519 4.616 1.511 5.927 1.009 1.319 2.502 2.43 4.496 2.43zm25.017 18.308H93.677c-16.532 0-29.924 12.882-29.924 28.75v24.307c0 15.877 13.392 28.759 29.924 28.759h103.964c16.523 0 29.924-12.882 29.924-28.759v-24.307c.001-15.869-13.4-28.75-29.923-28.75zm-88.498 24.671H99.95v38.072h-8.894v-38.072h-9.195v-6.491h27.284l-.001 6.491zm27.439 38.6h-9.586v-3.951c-1.784 1.457-3.614 2.576-5.544 3.323-1.903.783-3.76 1.156-5.562 1.156-2.221 0-3.878-.537-5.007-1.62-1.111-1.065-1.684-2.667-1.684-4.807v-30.06h9.586v27.575c0 .856.2 1.457.583 1.839.419.391 1.083.564 1.976.564.692 0 1.602-.246 2.676-.756a12.29 12.29 0 002.977-1.93V163.94h9.586l-.001 35.969zm36.287-6.846c0 2.358-.747 4.151-2.23 5.417-1.466 1.265-3.632 1.884-6.427 1.884-1.866 0-3.523-.237-4.962-.719a12.478 12.478 0 01-4.051-2.258v2.549h-9.568v-45.118h9.568v14.539c1.293-1.001 2.649-1.784 4.06-2.312a12.461 12.461 0 014.37-.792c2.995 0 5.28.701 6.855 2.112 1.593 1.42 2.385 3.505 2.385 6.227v18.471zm36.47-10.151h-17.661v6.5c0 1.812.291 3.068.901 3.778.619.701 1.666 1.047 3.132 1.047 1.548 0 2.604-.3 3.223-.892.601-.601.929-1.903.929-3.942v-1.566h9.495v1.766c0 3.532-1.138 6.191-3.487 7.984-2.312 1.784-5.772 2.676-10.369 2.676-4.142 0-7.401-.947-9.777-2.84-2.367-1.875-3.569-4.497-3.569-7.811v-15.495c0-2.977 1.311-5.435 3.933-7.319 2.613-1.875 5.963-2.813 10.105-2.813 4.224 0 7.474.874 9.75 2.613 2.267 1.739 3.396 4.251 3.396 7.511l-.001 8.803zm-105.348-64.454h10.861V91.993l12.645-37.325h-11.043l-6.719 25.509h-.692l-7.046-25.509H91.046l12.945 38.518.001 25.272zm55.168 53.074l-2.012.328-1.957 1.011v20.738c.765.537 1.52.947 2.249 1.174l2.285.355c1.165 0 2.012-.228 2.558-.71.537-.464.819-1.229.819-2.276v-17.197c0-1.138-.319-1.985-.992-2.558-.692-.573-1.666-.865-2.95-.865z" fill="#fff"/><path d="M196.222 170.021c-1.475 0-2.522.31-3.168.947-.637.61-.947 1.648-.947 3.095v3.478h8.166v-3.478c0-1.447-.337-2.476-.974-3.095-.629-.637-1.675-.947-3.077-.947z" fill="#fff"/></svg><svg viewBox="-21 -117 682.667 682" id="youtube-plain" xmlns="http://www.w3.org/2000/svg"><path d="M626.813 64.035c-7.375-27.418-28.993-49.031-56.407-56.414C520.324-6.082 319.992-6.082 319.992-6.082s-200.324 0-250.406 13.184c-26.887 7.375-49.031 29.52-56.406 56.933C0 114.113 0 217.97 0 217.97s0 104.379 13.18 153.933c7.382 27.414 28.992 49.028 56.41 56.41C120.195 442.02 320 442.02 320 442.02s200.324 0 250.406-13.184c27.418-7.379 49.032-28.992 56.414-56.406 13.176-50.082 13.176-153.934 13.176-153.934s.527-104.383-13.183-154.46zM256.21 313.915V122.022l166.586 95.946zm0 0"/></svg></svg>